<svg width="178" height="34" viewBox="0 0 178 34" fill="none" xmlns="http://www.w3.org/2000/svg">
<path d="M45.6425 6.93021C38.0625 6.93021 32.5625 12.5702 32.5625 20.3302C32.5625 28.0902 38.0025 33.6202 45.9025 33.6202C47.6801 33.6939 49.4535 33.3948 51.1085 32.7421C52.7636 32.0894 54.2637 31.0975 55.5125 29.8302C56.0053 29.3434 56.3008 28.6917 56.3425 28.0002C56.3528 27.5577 56.2259 27.1229 55.9792 26.7555C55.7324 26.3881 55.378 26.1061 54.9645 25.9482C54.6897 25.8435 54.3963 25.7965 54.1025 25.8102C53.7576 25.8197 53.418 25.898 53.1037 26.0405C52.7895 26.183 52.5069 26.3869 52.2725 26.6402C51.4475 27.4942 50.4572 28.1713 49.3621 28.6303C48.267 29.0894 47.0899 29.3207 45.9025 29.3102C43.8772 29.3402 41.9176 28.5911 40.4288 27.2177C38.94 25.8443 38.0356 23.9514 37.9025 21.9302H55.0025C56.8625 21.9302 57.7725 21.0602 57.7725 19.2702C57.7838 18.7147 57.747 18.1593 57.6625 17.6102C56.7425 10.9002 52.2425 6.93021 45.6425 6.93021V6.93021ZM45.6425 11.0902C49.7525 11.0902 52.3925 13.7102 52.5525 17.9302H37.8925C38.0926 16.0265 39 14.2672 40.4351 13.0006C41.8703 11.7339 43.7287 11.0522 45.6425 11.0902V11.0902ZM74.1225 6.93021C72.4591 6.9141 70.8218 7.34444 69.3813 8.17638C67.9408 9.00831 66.7498 10.2114 65.9325 11.6602V10.0002C65.9325 7.37021 63.9325 7.24021 63.4825 7.24021C63.1299 7.23137 62.7796 7.29906 62.4558 7.43862C62.1319 7.57818 61.8421 7.78629 61.6064 8.04862C61.3707 8.31095 61.1946 8.62126 61.0904 8.95818C60.9861 9.29509 60.9561 9.6506 61.0025 10.0002V30.4902C60.9708 30.8522 61.0147 31.2168 61.1315 31.5608C61.2482 31.9049 61.4353 32.2209 61.6807 32.4888C61.9262 32.7567 62.2247 32.9706 62.5572 33.117C62.8898 33.2633 63.2492 33.3389 63.6125 33.3389C63.9758 33.3389 64.3352 33.2633 64.6678 33.117C65.0003 32.9706 65.2988 32.7567 65.5443 32.4888C65.7897 32.2209 65.9768 31.9049 66.0935 31.5608C66.2103 31.2168 66.2542 30.8522 66.2225 30.4902V19.4902C66.2225 14.7102 68.9325 11.3602 72.8125 11.3602C76.6925 11.3602 78.4125 13.8302 78.4125 18.9102V30.4902C78.3636 30.9481 78.4361 31.4107 78.6228 31.8316C78.8096 32.2525 79.1039 32.6168 79.4761 32.8877C79.8484 33.1587 80.2855 33.3269 80.7434 33.3752C81.2013 33.4236 81.6638 33.3505 82.0845 33.1632C82.5906 32.9376 83.0121 32.5573 83.2884 32.077C83.5648 31.5967 83.6817 31.0411 83.6225 30.4902V17.2602C83.6025 12.2702 81.1125 6.93021 74.1225 6.93021V6.93021ZM107.202 7.20021C106.6 7.20973 106.017 7.41919 105.547 7.79569C105.076 8.17219 104.744 8.69438 104.602 9.28021L97.4625 27.2202L90.3825 9.28021C90.2324 8.68959 89.891 8.16527 89.4116 7.78901C88.9323 7.41275 88.3419 7.20572 87.7325 7.20021C87.0552 7.1868 86.4002 7.44238 85.911 7.91098C85.4218 8.37957 85.1382 9.02297 85.1225 9.70021C85.1265 10.2082 85.2395 10.7102 85.4525 11.1702L93.6525 30.5302C94.6525 32.8702 96.2325 33.3602 97.4125 33.3602C98.5925 33.3602 100.193 32.8702 101.173 30.5402L109.432 11.0702C109.629 10.6182 109.739 10.1332 109.753 9.64021C109.753 9.31036 109.687 8.98384 109.557 8.68044C109.428 8.37705 109.238 8.1031 108.999 7.87521C108.761 7.64676 108.479 7.46912 108.17 7.35308C107.861 7.23704 107.532 7.18503 107.202 7.20021ZM122.363 6.93021C119.248 6.86516 116.191 7.77794 113.622 9.54021C113.265 9.75228 112.969 10.0538 112.764 10.415C112.559 10.7763 112.452 11.1848 112.452 11.6002C112.441 11.8696 112.485 12.1384 112.58 12.3904C112.676 12.6424 112.822 12.8723 113.01 13.0662C113.196 13.2604 113.42 13.4149 113.668 13.5204C113.916 13.6259 114.183 13.6802 114.452 13.6802C115.012 13.6539 115.551 13.4625 116.003 13.1302C117.71 11.8969 119.756 11.2195 121.863 11.1902C125.713 11.1902 127.923 13.1902 127.923 16.5702V17.1402C119.273 17.1402 110.473 18.2002 110.473 25.7302C110.473 31.1502 115.103 33.5702 119.693 33.5702C121.339 33.6446 122.978 33.299 124.454 32.5661C125.93 31.8331 127.196 30.7368 128.133 29.3802V30.7002C128.077 31.2134 128.188 31.7309 128.449 32.1761C128.711 32.6213 129.108 32.9706 129.583 33.1722C129.899 33.3052 130.241 33.3692 130.583 33.3602C130.925 33.3734 131.266 33.3117 131.582 33.1792C131.898 33.0468 132.181 32.8468 132.412 32.5934C132.642 32.34 132.814 32.0392 132.917 31.7122C133.019 31.3852 133.048 31.0398 133.003 30.7002V16.8902C133.003 10.6502 129.003 6.93021 122.363 6.93021ZM126.863 21.0002H128.003V22.2002C128.003 26.6002 125.212 29.4302 120.882 29.4302C119.702 29.4302 115.882 29.1602 115.882 25.6402C115.822 21.4602 122.123 21.0002 126.863 21.0002ZM146.542 11.9302C146.998 11.9928 147.461 11.9054 147.862 11.6811C148.263 11.4568 148.58 11.1079 148.766 10.6872C148.888 10.4072 148.949 10.1052 148.943 9.80021C148.952 9.49204 148.895 9.18539 148.775 8.90147C148.655 8.61755 148.474 8.36314 148.246 8.15583C148.018 7.94851 147.747 7.79325 147.453 7.70077C147.159 7.60829 146.848 7.5808 146.542 7.62021H141.853V2.87021C141.891 2.50741 141.853 2.14055 141.741 1.79331C141.629 1.44606 141.446 1.12615 141.202 0.854212C140.958 0.58293 140.66 0.365937 140.327 0.217276C139.993 0.0686146 139.632 -0.00840155 139.268 -0.0087881C138.902 -0.00910304 138.541 0.0675253 138.208 0.216101C137.874 0.364677 137.576 0.581865 137.332 0.853505C137.088 1.12514 136.904 1.44514 136.792 1.79262C136.68 2.14011 136.643 2.50728 136.682 2.87021V25.4102C136.682 30.6102 139.253 33.4102 144.103 33.4102C145.229 33.4383 146.349 33.234 147.393 32.8102C147.804 32.6394 148.157 32.3548 148.413 31.99C148.668 31.6251 148.813 31.195 148.833 30.7502C148.844 30.4738 148.798 30.1981 148.698 29.9402C148.596 29.6832 148.443 29.4499 148.248 29.2546C148.052 29.0593 147.819 28.9064 147.562 28.8052C147.304 28.7048 147.029 28.6588 146.753 28.6702C146.438 28.6862 146.125 28.7402 145.823 28.8302C145.471 28.9288 145.108 28.9825 144.743 28.9902C142.743 28.9902 141.853 27.7002 141.853 24.9302V11.9302H146.542V11.9302ZM163.783 6.93021C155.903 6.93021 150.173 12.5202 150.173 20.2202C150.143 22.0058 150.475 23.7789 151.146 25.4336C151.818 27.0882 152.817 28.5904 154.083 29.8502C156.697 32.3292 160.18 33.6829 163.783 33.6202C171.573 33.6202 177.452 27.8602 177.452 20.2202C177.452 12.5802 171.703 6.93021 163.783 6.93021V6.93021ZM163.783 29.2002C158.373 29.2002 155.553 24.6902 155.553 20.2002C155.553 14.0702 159.823 11.2802 163.783 11.2802C167.743 11.2802 172.003 14.0902 172.003 20.2202C172.003 26.3502 167.753 29.2002 163.783 29.2002Z" fill="white"/>
<path d="M23.6409 4.56011C19.4509 -0.349893 5.89088 9.16011 6.00088 21.4201C5.9983 21.5705 5.93743 21.714 5.83108 21.8203C5.72474 21.9267 5.58125 21.9875 5.43088 21.9901C5.33212 21.989 5.23527 21.9627 5.14952 21.9137C5.06377 21.8647 4.99195 21.7946 4.94088 21.7101C3.54702 18.6765 3.36108 15.2259 4.42088 12.0601C4.46018 11.9441 4.45806 11.818 4.41488 11.7033C4.3717 11.5886 4.29012 11.4925 4.18403 11.4312C4.07794 11.3699 3.95389 11.3472 3.83298 11.3671C3.71208 11.387 3.60179 11.4481 3.52088 11.5401C1.26081 13.9487 0.00226874 17.1272 0.000875618 20.4301C-0.0192324 22.1626 0.30717 23.8816 0.960899 25.4861C1.61463 27.0906 2.58249 28.5483 3.80761 29.7734C5.03273 30.9985 6.49038 31.9664 8.0949 32.6201C9.69941 33.2738 11.4184 33.6002 13.1509 33.5801C31.6509 33.1601 27.3809 8.94011 23.6409 4.56011V4.56011Z" fill="#80B341"/>
</svg>
